# xmcd
#
# Track frame offsets:
#	150
#	10802
#	26616
#	34735
#	46324
#	55164
#	65972
#	74481
#	83794
#	103480
#	112078
#	127210
#
# Disc length: 1962 seconds
#
# Revision: 1
# Processed by: cddbd v1.5.2PL0 Copyright (c) Steve Scherf et al.
# Submitted via: audiograbber 1.83.01
#
DISCID=b407a80c
DTITLE=Brassknuckle Boys - Appalachian Industry
DYEAR=2009
DGENRE=Punk Rock
TTITLE0=Appalachian Industry 
TTITLE1=Green Fields Of France 
TTITLE2=Ballad Of Lucas Wells 
TTITLE3=Day After Day 
TTITLE4=Don't You Ever Leave Me (Hanoi Rocks) 
TTITLE5=By The Throat 
TTITLE6=New Amendment 
TTITLE7=New York Mining Disaster (Bee Gees)
TTITLE8=Fire On The Plains 
TTITLE9=The Pilgrim (Kris Kristofferson) 
TTITLE10=Once You Go Rat 
TTITLE11=Our Little Secret 
EXTD=
EXTT0=
EXTT1=
EXTT2=
EXTT3=
EXTT4=
EXTT5=
EXTT6=
EXTT7=
EXTT8=
EXTT9=
EXTT10=
EXTT11=
PLAYORDER=
